<svg xmlns="http://www.w3.org/2000/svg" width="80" height="80" viewBox="0 0 70 70">
	<path fill="none" stroke="#00B6B7" stroke-width="3" stroke-miterlimit="10" d="M16.7 5H10v13.3H6.7V65h56.6V8.3l-10 10H50v-10l-10 10h-3.3v-10l-10 10h-3.4v-10z"/>
	<path fill="#00B6B7" d="M19.1 24.6h-3.5v3.5h3.5v-3.5M26.2 24.6h-3.6v3.5h3.6v-3.5M33.2 24.6h-3.5v3.5h3.5v-3.5M40.3 24.6h-3.5v3.5h3.5v-3.5M47.3 24.6h-3.5v3.5h3.5v-3.5M54.4 24.6h-3.5v3.5h3.5v-3.5M19.1 31.6h-3.5v3.5h3.5v-3.5M26.2 31.6h-3.6v3.5h3.6v-3.5M33.2 31.6h-3.5v3.5h3.5v-3.5M40.3 31.6h-3.5v3.5h3.5v-3.5M47.3 31.6h-3.5v3.5h3.5v-3.5M54.4 31.6h-3.5v3.5h3.5v-3.5M19.1 38.7h-3.5v3.5h3.5v-3.5M26.2 38.7h-3.6v3.5h3.6v-3.5M33.2 38.7h-3.5v3.5h3.5v-3.5M40.3 38.7h-3.5v3.5h3.5v-3.5M47.3 38.7h-3.5v3.5h3.5v-3.5M54.4 38.7h-3.5v3.5h3.5v-3.5M19.1 45.7h-3.5v3.5h3.5v-3.5M26.2 45.7h-3.6v3.5h3.6v-3.5M33.2 45.7h-3.5v3.5h3.5v-3.5M40.3 45.7h-3.5v3.5h3.5v-3.5M47.3 45.7h-3.5v3.5h3.5v-3.5M54.4 45.7h-3.5v3.5h3.5v-3.5M19.1 52.8h-3.5v3.5h3.5v-3.5M26.2 52.8h-3.6v3.5h3.6v-3.5M33.2 52.8h-3.5v3.5h3.5v-3.5M40.3 52.8h-3.5v3.5h3.5v-3.5M47.3 52.8h-3.5v3.5h3.5v-3.5M54.4 52.8h-3.5v3.5h3.5v-3.5"/>
</svg>