<?xml version="1.0" encoding="UTF-8"?>
<svg width="162px" height="48px" viewBox="0 0 162 48" version="1.1" xmlns="http://www.w3.org/2000/svg" xmlns:xlink="http://www.w3.org/1999/xlink">
    <!-- Generator: Sketch 48.1 (47250) - http://www.bohemiancoding.com/sketch -->
    <title>badge_app_store</title>
    <desc>Created with Sketch.</desc>
    <defs></defs>
    <g id="01_login_(app_stores_badge)" stroke="none" stroke-width="1" fill="none" fill-rule="evenodd" transform="translate(-783.000000, -684.000000)">
        <g id="body" transform="translate(778.000000, 180.000000)">
            <g id="badges" transform="translate(5.000000, 504.000000)">
                <g id="badge_app_store">
                    <path d="M156.2364,48 L5.6748,48 C2.5464,48 0,45.4464 0,42.3204 L0,5.6712 C0,2.544 2.5464,0 5.6748,0 L156.2364,0 C159.3636,0 162,2.544 162,5.6712 L162,42.3204 C162,45.4464 159.3636,48 156.2364,48 L156.2364,48 L156.2364,48 Z" id="Shape" fill="#A6A6A6"></path>
                    <path d="M161,42 C161,44.9364531 158.940244,47 156,47 L6,47 C3.0669661,47 1,44.9364531 1,42 L1,6 C1,3.07077052 3.0669661,1 6,1 L156,1 C158.940244,1 160.998798,3.07077052 161,6 L161,42 L161,42 L161,42 Z" id="Shape" fill="#000000"></path>
                    <path d="M36.1536,23.7408 C36.1188,19.8732 39.3204,17.9916 39.4668,17.904 C37.6536,15.2604 34.8432,14.8992 33.8556,14.8704 C31.4952,14.622 29.2056,16.2828 28.0032,16.2828 C26.7768,16.2828 24.9252,14.8944 22.9296,14.9352 C20.3616,14.9748 17.9592,16.4616 16.6416,18.7704 C13.9224,23.478 15.9504,30.396 18.5556,34.2012 C19.8588,36.0648 21.3816,38.1456 23.3748,38.0724 C25.3248,37.992 26.0532,36.8292 28.4064,36.8292 C30.738,36.8292 31.422,38.0724 33.4548,38.0256 C35.5476,37.992 36.8652,36.1536 38.1228,34.2732 C39.6288,32.1372 40.2336,30.0336 40.2576,29.9256 C40.2084,29.9088 36.1932,28.3764 36.1536,23.7408 L36.1536,23.7408 Z" id="Shape" fill="#FFFFFF"></path>
                    <path d="M32.3136,12.3672 C33.3624,11.0556 34.08,9.2712 33.8808,7.4604 C32.3628,7.5276 30.4644,8.5104 29.3712,9.7932 C28.404,10.9236 27.54,12.7764 27.7632,14.5188 C29.4684,14.646 31.2192,13.6584 32.3136,12.3672 L32.3136,12.3672 Z" id="Shape" fill="#FFFFFF"></path>
                    <path d="M64.374,37.8048 L61.6488,37.8048 L60.156,33.114 L54.9672,33.114 L53.5452,37.8048 L50.892,37.8048 L56.0328,21.8352 L59.208,21.8352 L64.374,37.8048 L64.374,37.8048 Z M59.706,31.146 L58.356,26.976 C58.2132,26.55 57.9456,25.5468 57.5508,23.9676 L57.5028,23.9676 C57.3456,24.6468 57.0924,25.65 56.7444,26.976 L55.4184,31.146 L59.706,31.146 L59.706,31.146 Z" id="Shape" fill="#FFFFFF"></path>
                    <path d="M77.5944,31.9056 C77.5944,33.864 77.0652,35.412 76.0068,36.5484 C75.0588,37.56 73.8816,38.0652 72.4764,38.0652 C70.9596,38.0652 69.87,37.5204 69.2064,36.4308 L69.1584,36.4308 L69.1584,42.4968 L66.6,42.4968 L66.6,30.0804 C66.6,28.8492 66.5676,27.5856 66.5052,26.2896 L68.7552,26.2896 L68.898,28.1148 L68.946,28.1148 C69.7992,26.7396 71.094,26.0532 72.8316,26.0532 C74.19,26.0532 75.324,26.5896 76.2312,27.6636 C77.1408,28.7388 77.5944,30.1524 77.5944,31.9056 L77.5944,31.9056 Z M74.988,31.9992 C74.988,30.8784 74.736,29.9544 74.2296,29.2272 C73.6764,28.4688 72.9336,28.0896 72.0024,28.0896 C71.3712,28.0896 70.7976,28.3008 70.2852,28.7172 C69.7716,29.1372 69.4356,29.6856 69.2784,30.3648 C69.1992,30.6816 69.1596,30.9408 69.1596,31.1448 L69.1596,33.0648 C69.1596,33.9024 69.4164,34.6092 69.93,35.1864 C70.4436,35.7636 71.1108,36.0516 71.9316,36.0516 C72.8952,36.0516 73.6452,35.6796 74.1816,34.938 C74.7192,34.1952 74.988,33.216 74.988,31.9992 L74.988,31.9992 Z" id="Shape" fill="#FFFFFF"></path>
                    <path d="M90.8388,31.9056 C90.8388,33.864 90.3096,35.412 89.25,36.5484 C88.3032,37.56 87.126,38.0652 85.7208,38.0652 C84.204,38.0652 83.1144,37.5204 82.452,36.4308 L82.404,36.4308 L82.404,42.4968 L79.8456,42.4968 L79.8456,30.0804 C79.8456,28.8492 79.8132,27.5856 79.7508,26.2896 L82.0008,26.2896 L82.1436,28.1148 L82.1916,28.1148 C83.0436,26.7396 84.3384,26.0532 86.0772,26.0532 C87.4344,26.0532 88.5684,26.5896 89.478,27.6636 C90.384,28.7388 90.8388,30.1524 90.8388,31.9056 L90.8388,31.9056 Z M88.2324,31.9992 C88.2324,30.8784 87.9792,29.9544 87.4728,29.2272 C86.9196,28.4688 86.1792,28.0896 85.2468,28.0896 C84.6144,28.0896 84.042,28.3008 83.5284,28.7172 C83.0148,29.1372 82.68,29.6856 82.5228,30.3648 C82.4448,30.6816 82.404,30.9408 82.404,31.1448 L82.404,33.0648 C82.404,33.9024 82.6608,34.6092 83.172,35.1864 C83.6856,35.7624 84.3528,36.0516 85.176,36.0516 C86.1396,36.0516 86.8896,35.6796 87.426,34.938 C87.9636,34.1952 88.2324,33.216 88.2324,31.9992 L88.2324,31.9992 Z" id="Shape" fill="#FFFFFF"></path>
                    <path d="M105.6468,33.3264 C105.6468,34.6848 105.1752,35.79 104.2284,36.6432 C103.188,37.5756 101.7396,38.0412 99.8784,38.0412 C98.16,38.0412 96.7824,37.71 95.7396,37.0464 L96.3324,34.914 C97.4556,35.5932 98.688,35.934 100.0308,35.934 C100.9944,35.934 101.7444,35.7156 102.2832,35.2812 C102.8196,34.8468 103.0872,34.2636 103.0872,33.5364 C103.0872,32.8884 102.8664,32.3424 102.4236,31.8996 C101.9832,31.4568 101.2476,31.0452 100.2204,30.6648 C97.4244,29.622 96.0276,28.0944 96.0276,26.0856 C96.0276,24.7728 96.5172,23.6964 97.4976,22.8588 C98.4744,22.02 99.7776,21.6012 101.4072,21.6012 C102.8604,21.6012 104.0676,21.8544 105.0312,22.3596 L104.3916,24.4452 C103.4916,23.9556 102.474,23.7108 101.3352,23.7108 C100.4352,23.7108 99.732,23.9328 99.228,24.3744 C98.802,24.7692 98.5884,25.2504 98.5884,25.8204 C98.5884,26.4516 98.832,26.9736 99.3216,27.384 C99.7476,27.7632 100.5216,28.1736 101.6448,28.6164 C103.0188,29.1696 104.028,29.8164 104.6772,30.558 C105.324,31.2972 105.6468,32.2224 105.6468,33.3264 L105.6468,33.3264 Z" id="Shape" fill="#FFFFFF"></path>
                    <path d="M114.1056,28.2096 L111.2856,28.2096 L111.2856,33.8004 C111.2856,35.2224 111.7824,35.9328 112.7784,35.9328 C113.2356,35.9328 113.6148,35.8932 113.9148,35.814 L113.9856,37.7568 C113.4816,37.9452 112.818,38.04 111.996,38.04 C110.9856,38.04 110.196,37.7316 109.626,37.116 C109.0584,36.4992 108.7728,35.4648 108.7728,34.0116 L108.7728,28.2072 L107.0928,28.2072 L107.0928,26.2872 L108.7728,26.2872 L108.7728,24.1788 L111.2856,23.4204 L111.2856,26.2872 L114.1056,26.2872 L114.1056,28.2096 L114.1056,28.2096 Z" id="Shape" fill="#FFFFFF"></path>
                    <path d="M126.8292,31.9524 C126.8292,33.7224 126.3228,35.1756 125.3124,36.312 C124.2528,37.482 122.8464,38.0652 121.0932,38.0652 C119.4036,38.0652 118.0584,37.5048 117.0552,36.384 C116.052,35.2632 115.5504,33.8484 115.5504,32.1432 C115.5504,30.3588 116.0664,28.8972 117.102,27.7608 C118.1352,26.6232 119.5296,26.0544 121.2828,26.0544 C122.9724,26.0544 124.332,26.6148 125.358,27.7368 C126.3396,28.8252 126.8292,30.2304 126.8292,31.9524 L126.8292,31.9524 Z M124.1748,32.0352 C124.1748,30.9732 123.948,30.0624 123.4884,29.3028 C122.952,28.3836 122.1852,27.9252 121.1916,27.9252 C120.1632,27.9252 119.382,28.3848 118.8456,29.3028 C118.386,30.0636 118.1592,30.9888 118.1592,32.0832 C118.1592,33.1452 118.386,34.056 118.8456,34.8144 C119.3988,35.7336 120.1716,36.192 121.1688,36.192 C122.1456,36.192 122.9124,35.724 123.4656,34.7904 C123.9372,34.0164 124.1748,33.096 124.1748,32.0352 L124.1748,32.0352 Z" id="Shape" fill="#FFFFFF"></path>
                    <path d="M135.1452,28.5396 C134.892,28.4928 134.622,28.4688 134.3388,28.4688 C133.4388,28.4688 132.7428,28.8084 132.2532,29.4888 C131.8272,30.0888 131.6136,30.8472 131.6136,31.7628 L131.6136,37.8048 L129.0564,37.8048 L129.0804,29.916 C129.0804,28.5888 129.048,27.3804 128.9844,26.2908 L131.2128,26.2908 L131.3064,28.494 L131.3772,28.494 C131.6472,27.7368 132.0732,27.1272 132.6564,26.67 C133.2264,26.2584 133.842,26.0532 134.5056,26.0532 C134.742,26.0532 134.9556,26.07 135.1452,26.1 L135.1452,28.5396 L135.1452,28.5396 Z" id="Shape" fill="#FFFFFF"></path>
                    <path d="M146.5872,31.5024 C146.5872,31.9608 146.5572,32.3472 146.4936,32.6628 L138.8184,32.6628 C138.8484,33.8004 139.2192,34.6704 139.932,35.2704 C140.5788,35.8068 141.4152,36.0756 142.4424,36.0756 C143.5788,36.0756 144.6156,35.8944 145.548,35.5308 L145.9488,37.3068 C144.8592,37.782 143.5728,38.0184 142.0884,38.0184 C140.3028,38.0184 138.9012,37.4928 137.8812,36.4428 C136.8636,35.3928 136.3536,33.9828 136.3536,32.214 C136.3536,30.4776 136.8276,29.0316 137.7768,27.8784 C138.7704,26.6472 140.1132,26.0316 141.8028,26.0316 C143.4624,26.0316 144.7188,26.6472 145.572,27.8784 C146.2476,28.8564 146.5872,30.066 146.5872,31.5024 L146.5872,31.5024 Z M144.1476,30.8388 C144.1644,30.0804 143.9976,29.4252 143.6508,28.872 C143.208,28.1604 142.5276,27.8052 141.612,27.8052 C140.7756,27.8052 140.0952,28.152 139.5756,28.848 C139.1496,29.4012 138.8964,30.0648 138.8184,30.8376 L144.1476,30.8376 L144.1476,30.8388 Z" id="Shape" fill="#FFFFFF"></path>
                    <path d="M58.86,12.0108 C58.86,13.4232 58.4364,14.4864 57.5904,15.2004 C56.8068,15.8592 55.6932,16.1892 54.2508,16.1892 C53.5356,16.1892 52.9236,16.158 52.4112,16.0956 L52.4112,8.3784 C53.0796,8.2704 53.7996,8.2152 54.5772,8.2152 C55.9512,8.2152 56.9868,8.514 57.6852,9.1116 C58.4676,9.7872 58.86,10.7532 58.86,12.0108 L58.86,12.0108 Z M57.534,12.0456 C57.534,11.13 57.2916,10.428 56.8068,9.9384 C56.322,9.45 55.614,9.2052 54.6816,9.2052 C54.2856,9.2052 53.9484,9.2316 53.6688,9.2868 L53.6688,15.1536 C53.8236,15.1776 54.1068,15.1884 54.5184,15.1884 C55.4808,15.1884 56.2236,14.9208 56.7468,14.3856 C57.27,13.8504 57.534,13.0704 57.534,12.0456 L57.534,12.0456 Z" id="Shape" fill="#FFFFFF"></path>
                    <path d="M65.8908,13.2444 C65.8908,14.1144 65.6424,14.8272 65.1456,15.3864 C64.6248,15.9612 63.9348,16.248 63.0732,16.248 C62.2428,16.248 61.5816,15.9732 61.0884,15.4212 C60.5964,14.8704 60.3504,14.1756 60.3504,13.338 C60.3504,12.462 60.6036,11.7432 61.1124,11.1852 C61.6212,10.6272 62.3052,10.3476 63.1668,10.3476 C63.9972,10.3476 64.6644,10.6224 65.1696,11.1732 C65.6496,11.7084 65.8908,12.3996 65.8908,13.2444 L65.8908,13.2444 Z M64.5864,13.2852 C64.5864,12.7632 64.4736,12.3156 64.2492,11.9424 C63.9852,11.4912 63.6096,11.2656 63.1212,11.2656 C62.616,11.2656 62.232,11.4912 61.968,11.9424 C61.7424,12.3156 61.6308,12.7704 61.6308,13.308 C61.6308,13.83 61.7436,14.2776 61.968,14.6508 C62.2404,15.102 62.6196,15.3276 63.1092,15.3276 C63.5892,15.3276 63.966,15.0984 64.2372,14.6388 C64.47,14.2584 64.5864,13.8072 64.5864,13.2852 L64.5864,13.2852 Z" id="Shape" fill="#FFFFFF"></path>
                    <path d="M75.318,10.4628 L73.548,16.1196 L72.396,16.1196 L71.6628,13.6632 C71.4768,13.05 71.3256,12.4404 71.208,11.8356 L71.1852,11.8356 C71.076,12.4572 70.9248,13.0656 70.7304,13.6632 L69.9516,16.1196 L68.7864,16.1196 L67.122,10.4628 L68.4144,10.4628 L69.054,13.152 C69.2088,13.788 69.336,14.394 69.438,14.9676 L69.4608,14.9676 C69.5544,14.4948 69.7092,13.8924 69.9276,13.164 L70.7304,10.464 L71.7552,10.464 L72.5244,13.1064 C72.7104,13.7508 72.8616,14.3712 72.978,14.9688 L73.0128,14.9688 C73.098,14.3868 73.2264,13.7664 73.3968,13.1064 L74.0832,10.464 L75.318,10.464 L75.318,10.4628 Z" id="Shape" fill="#FFFFFF"></path>
                    <path d="M81.8376,16.1196 L80.58,16.1196 L80.58,12.8796 C80.58,11.8812 80.2008,11.382 79.44,11.382 C79.0668,11.382 78.7656,11.5188 78.5316,11.7936 C78.3,12.0684 78.1824,12.3924 78.1824,12.7632 L78.1824,16.1184 L76.9248,16.1184 L76.9248,12.0792 C76.9248,11.5824 76.9092,11.0436 76.8792,10.4604 L77.9844,10.4604 L78.0432,11.3448 L78.078,11.3448 C78.2244,11.07 78.4428,10.8432 78.7296,10.662 C79.0704,10.4508 79.452,10.344 79.8696,10.344 C80.3976,10.344 80.8368,10.5144 81.186,10.8564 C81.6204,11.2752 81.8376,11.9004 81.8376,12.7308 L81.8376,16.1196 L81.8376,16.1196 Z" id="Shape" fill="#FFFFFF"></path>
                    <polygon id="Shape" fill="#FFFFFF" points="85.3056 16.1196 84.0492 16.1196 84.0492 7.8672 85.3056 7.8672"></polygon>
                    <path d="M92.7096,13.2444 C92.7096,14.1144 92.4612,14.8272 91.9644,15.3864 C91.4436,15.9612 90.7524,16.248 89.892,16.248 C89.0604,16.248 88.3992,15.9732 87.9072,15.4212 C87.4152,14.8704 87.1692,14.1756 87.1692,13.338 C87.1692,12.462 87.4224,11.7432 87.9312,11.1852 C88.44,10.6272 89.124,10.3476 89.9844,10.3476 C90.816,10.3476 91.482,10.6224 91.9884,11.1732 C92.4684,11.7084 92.7096,12.3996 92.7096,13.2444 L92.7096,13.2444 Z M91.404,13.2852 C91.404,12.7632 91.2912,12.3156 91.0668,11.9424 C90.804,11.4912 90.4272,11.2656 89.94,11.2656 C89.4336,11.2656 89.0496,11.4912 88.7868,11.9424 C88.5612,12.3156 88.4496,12.7704 88.4496,13.308 C88.4496,13.83 88.5624,14.2776 88.7868,14.6508 C89.0592,15.102 89.4384,15.3276 89.928,15.3276 C90.408,15.3276 90.7836,15.0984 91.0548,14.6388 C91.2888,14.2584 91.404,13.8072 91.404,13.2852 L91.404,13.2852 Z" id="Shape" fill="#FFFFFF"></path>
                    <path d="M98.796,16.1196 L97.6668,16.1196 L97.5732,15.468 L97.5384,15.468 C97.152,15.9876 96.6012,16.248 95.886,16.248 C95.352,16.248 94.92,16.0764 94.5948,15.7356 C94.2996,15.426 94.152,15.0408 94.152,14.5836 C94.152,13.8924 94.44,13.3656 95.0196,13.0008 C95.598,12.636 96.4116,12.4572 97.4592,12.4656 L97.4592,12.36 C97.4592,11.6148 97.068,11.2428 96.2844,11.2428 C95.7264,11.2428 95.2344,11.3832 94.8096,11.6616 L94.554,10.836 C95.0796,10.5108 95.7288,10.3476 96.4944,10.3476 C97.9728,10.3476 98.7144,11.1276 98.7144,12.6876 L98.7144,14.7708 C98.7144,15.336 98.742,15.786 98.796,16.1196 L98.796,16.1196 Z M97.4904,14.1756 L97.4904,13.3032 C96.1032,13.2792 95.4096,13.6596 95.4096,14.4432 C95.4096,14.7384 95.4888,14.9592 95.6508,15.1068 C95.8128,15.2544 96.0192,15.3276 96.2652,15.3276 C96.5412,15.3276 96.7992,15.24 97.0344,15.066 C97.2708,14.8908 97.416,14.6688 97.47,14.3964 C97.4832,14.3352 97.4904,14.2608 97.4904,14.1756 L97.4904,14.1756 Z" id="Shape" fill="#FFFFFF"></path>
                    <path d="M105.942,16.1196 L104.826,16.1196 L104.7672,15.2112 L104.7324,15.2112 C104.376,15.9024 103.7688,16.248 102.9156,16.248 C102.234,16.248 101.6664,15.9804 101.2164,15.4452 C100.7664,14.91 100.542,14.2152 100.542,13.362 C100.542,12.4464 100.7856,11.7048 101.2752,11.1384 C101.7492,10.6104 102.33,10.3464 103.0212,10.3464 C103.7808,10.3464 104.3124,10.602 104.6148,11.1144 L104.6388,11.1144 L104.6388,7.8672 L105.8976,7.8672 L105.8976,14.5956 C105.8976,15.1464 105.912,15.654 105.942,16.1196 L105.942,16.1196 Z M104.6388,13.734 L104.6388,12.7908 C104.6388,12.6276 104.6268,12.4956 104.604,12.3948 C104.5332,12.0924 104.3808,11.838 104.1492,11.6328 C103.9152,11.4276 103.6332,11.3244 103.308,11.3244 C102.8388,11.3244 102.4716,11.5104 102.2016,11.8836 C101.934,12.2568 101.7984,12.7332 101.7984,13.3152 C101.7984,13.8744 101.9268,14.328 102.1848,14.6772 C102.4572,15.0492 102.8244,15.2352 103.284,15.2352 C103.6968,15.2352 104.0268,15.0804 104.2776,14.7696 C104.52,14.4828 104.6388,14.1372 104.6388,13.734 L104.6388,13.734 Z" id="Shape" fill="#FFFFFF"></path>
                    <path d="M116.6976,13.2444 C116.6976,14.1144 116.4492,14.8272 115.9524,15.3864 C115.4316,15.9612 114.7428,16.248 113.88,16.248 C113.0508,16.248 112.3896,15.9732 111.8952,15.4212 C111.4032,14.8704 111.1572,14.1756 111.1572,13.338 C111.1572,12.462 111.4104,11.7432 111.9192,11.1852 C112.428,10.6272 113.112,10.3476 113.9748,10.3476 C114.804,10.3476 115.4724,10.6224 115.9764,11.1732 C116.4564,11.7084 116.6976,12.3996 116.6976,13.2444 L116.6976,13.2444 Z M115.3944,13.2852 C115.3944,12.7632 115.2816,12.3156 115.0572,11.9424 C114.792,11.4912 114.4176,11.2656 113.928,11.2656 C113.424,11.2656 113.04,11.4912 112.7748,11.9424 C112.5492,12.3156 112.4376,12.7704 112.4376,13.308 C112.4376,13.83 112.5504,14.2776 112.7748,14.6508 C113.0472,15.102 113.4264,15.3276 113.916,15.3276 C114.396,15.3276 114.774,15.0984 115.0452,14.6388 C115.2768,14.2584 115.3944,13.8072 115.3944,13.2852 L115.3944,13.2852 Z" id="Shape" fill="#FFFFFF"></path>
                    <path d="M123.4596,16.1196 L122.2032,16.1196 L122.2032,12.8796 C122.2032,11.8812 121.824,11.382 121.062,11.382 C120.6888,11.382 120.3876,11.5188 120.1548,11.7936 C119.922,12.0684 119.8056,12.3924 119.8056,12.7632 L119.8056,16.1184 L118.5468,16.1184 L118.5468,12.0792 C118.5468,11.5824 118.5324,11.0436 118.5024,10.4604 L119.6064,10.4604 L119.6652,11.3448 L119.7,11.3448 C119.8476,11.07 120.066,10.8432 120.3516,10.662 C120.6936,10.4508 121.074,10.344 121.4928,10.344 C122.0196,10.344 122.4588,10.5144 122.808,10.8564 C123.2436,11.2752 123.4596,11.9004 123.4596,12.7308 L123.4596,16.1196 L123.4596,16.1196 Z" id="Shape" fill="#FFFFFF"></path>
                    <path d="M131.9232,11.4048 L130.5384,11.4048 L130.5384,14.1528 C130.5384,14.8512 130.7844,15.2004 131.2716,15.2004 C131.4972,15.2004 131.6844,15.1812 131.832,15.1416 L131.8644,16.0956 C131.616,16.1892 131.2896,16.236 130.8876,16.236 C130.3908,16.236 130.0044,16.0848 129.7248,15.7824 C129.444,15.48 129.3048,14.9712 129.3048,14.2572 L129.3048,11.4048 L128.478,11.4048 L128.478,10.4628 L129.3048,10.4628 L129.3048,9.426 L130.5372,9.054 L130.5372,10.4616 L131.922,10.4616 L131.922,11.4048 L131.9232,11.4048 Z" id="Shape" fill="#FFFFFF"></path>
                    <path d="M138.5808,16.1196 L137.322,16.1196 L137.322,12.9036 C137.322,11.8896 136.9428,11.382 136.1832,11.382 C135.6,11.382 135.2016,11.676 134.9832,12.264 C134.946,12.3876 134.9244,12.5388 134.9244,12.7164 L134.9244,16.1184 L133.668,16.1184 L133.668,7.8672 L134.9244,7.8672 L134.9244,11.2764 L134.9484,11.2764 C135.3444,10.656 135.912,10.3464 136.6476,10.3464 C137.1684,10.3464 137.5992,10.5168 137.9412,10.8588 C138.3672,11.2848 138.5808,11.9184 138.5808,12.756 L138.5808,16.1196 L138.5808,16.1196 Z" id="Shape" fill="#FFFFFF"></path>
                    <path d="M145.4484,13.0236 C145.4484,13.2492 145.4316,13.4388 145.4016,13.5936 L141.63,13.5936 C141.6468,14.1528 141.8268,14.5788 142.176,14.874 C142.4952,15.138 142.9068,15.27 143.4108,15.27 C143.9688,15.27 144.4776,15.1812 144.936,15.0024 L145.1328,15.876 C144.5964,16.1088 143.9652,16.2252 143.2344,16.2252 C142.3584,16.2252 141.6684,15.9672 141.1692,15.4512 C140.6676,14.9352 140.4192,14.2428 140.4192,13.374 C140.4192,12.5208 140.6508,11.8104 141.1176,11.244 C141.6048,10.6392 142.2636,10.3368 143.0952,10.3368 C143.9088,10.3368 144.5268,10.6392 144.9444,11.244 C145.2816,11.724 145.4484,12.318 145.4484,13.0236 L145.4484,13.0236 Z M144.2484,12.6984 C144.258,12.3252 144.1752,12.0036 144.0048,11.7324 C143.7864,11.3832 143.454,11.208 143.004,11.208 C142.5936,11.208 142.2588,11.3784 142.0032,11.7204 C141.7944,11.9928 141.6708,12.318 141.63,12.6984 L144.2484,12.6984 L144.2484,12.6984 Z" id="Shape" fill="#FFFFFF"></path>
                </g>
            </g>
        </g>
    </g>
</svg>