<svg xmlns="http://www.w3.org/2000/svg" width="80" height="80" viewBox="0 0 70 70">
	<path fill="none" stroke="#00B6B7" stroke-width="3" stroke-miterlimit="10" d="M28.7 26c.3-1.1.5-2.3.5-3.5 0-7.4-6-13.3-13.3-13.3-7.4 0-13.3 6-13.3 13.3s6 13.3 13.3 13.3c2.2 0 4.3-.5 6.1-1.5M47.7 34.2c1.9 1.1 4.1 1.7 6.5 1.7 7.4 0 13.3-6 13.3-13.3s-6-13.3-13.3-13.3-13.3 6-13.3 13.3c0 1.3.2 2.5.5 3.7"/>
	<circle cx="34.8" cy="37.9" r="13.3" fill="none" stroke="#00B6B7" stroke-width="3" stroke-miterlimit="10"/>
	<g fill="none" stroke="#00B6B7" stroke-width="3" stroke-miterlimit="10" stroke-linecap="round">
	<path d="M28 49.3c-3.9 2.3-6.5 6.6-6.5 11.5M48.2 60.8c0-4.9-2.6-9.1-6.5-11.5"/>
	</g>
	<path fill="none" stroke="#00B6B7" stroke-width="3" stroke-miterlimit="10" d="M67.5 45.5c0-4.9-2.6-9.1-6.5-11.4M9 34.1c-3.9 2.3-6.5 6.6-6.5 11.4" stroke-linecap="round"/>
</svg>