<?xml version="1.0" encoding="UTF-8"?>
<svg width="60px" height="60px" viewBox="0 0 60 60" version="1.1" xmlns="http://www.w3.org/2000/svg" xmlns:xlink="http://www.w3.org/1999/xlink">
    <!-- Generator: Sketch 48.1 (47250) - http://www.bohemiancoding.com/sketch -->
    <title>iOS icon</title>
    <desc>Created with Sketch.</desc>
    <defs></defs>
    <g id="Rounded/AppIcon/Icon-60" stroke="none" stroke-width="1" fill="none" fill-rule="evenodd">
        <g id="iOS-icon">
            <rect id="container" fill="#1C75B9" x="0" y="-0.3515625" width="60" height="60.3515625"></rect>
            <g id="icon_2" stroke-width="1" transform="translate(7.675781, 6.503906)">
                <g id="pages" fill="#FFFFFF">
                    <path d="M0,17.0776844 C-1.7954388e-15,13.8591432 2.71501779,11.25 6.06435581,11.25 L38.4083004,11.25 C41.7575517,11.25 44.4726563,13.8590598 44.4726562,17.0776844 L44.4726562,40.4613781 C44.4726562,43.6799193 41.7576385,46.2890625 38.4083004,46.2890625 L6.06435581,46.2890625 C2.71510458,46.2890625 1.61589492e-14,43.6800027 1.43635104e-14,40.4613781 L0,17.0776844 Z" id="page_3" opacity="0.599999964"></path>
                    <path d="M0,17.2141185 C-1.7954388e-15,13.9202268 2.71501779,11.25 6.06435581,11.25 L38.4083004,11.25 C41.7575517,11.25 44.4726563,13.9201415 44.4726562,17.2141185 L44.4726562,39.153069 C44.4726562,42.4469607 41.7576385,45.1171875 38.4083004,45.1171875 L6.06435581,45.1171875 C2.71510458,45.1171875 1.61589492e-14,42.447046 1.43635104e-14,39.153069 L0,17.2141185 Z" id="page_2" opacity="0.599999964"></path>
                    <path d="M0,6.26483038 C-1.7954388e-15,2.8048601 2.71501779,0 6.06435581,0 L38.4083004,0 C41.7575517,0 44.4726563,2.80477045 44.4726562,6.26483038 L44.4726562,37.6804821 C44.4726562,41.1404524 41.7576385,43.9453125 38.4083004,43.9453125 L6.06435581,43.9453125 C2.71510458,43.9453125 1.61589492e-14,41.1405421 1.43635104e-14,37.6804821 L0,6.26483038 Z M37.734375,8.7890625 C38.8669902,8.7890625 39.7851562,7.87089646 39.7851562,6.73828125 C39.7851562,5.60566604 38.8669902,4.6875 37.734375,4.6875 C36.6017598,4.6875 35.6835938,5.60566604 35.6835938,6.73828125 C35.6835938,7.87089646 36.6017598,8.7890625 37.734375,8.7890625 Z M6.73828125,8.7890625 C7.87089646,8.7890625 8.7890625,7.87089646 8.7890625,6.73828125 C8.7890625,5.60566604 7.87089646,4.6875 6.73828125,4.6875 C5.60566604,4.6875 4.6875,5.60566604 4.6875,6.73828125 C4.6875,7.87089646 5.60566604,8.7890625 6.73828125,8.7890625 Z" id="page_1"></path>
                </g>
                <g id="retangules" transform="translate(10.488281, 16.992188)">
                    <g id="rectangles">
                        <g id="Group-2">
                            <rect id="green" fill="#051E3C" x="0" y="0" width="4.1015625" height="4.1015625"></rect>
                            <rect id="green" fill="#051E3C" x="6.4453125" y="0" width="4.1015625" height="4.1015625"></rect>
                            <rect id="green" fill="#79B3E2" x="12.890625" y="0" width="4.1015625" height="4.1015625"></rect>
                            <rect id="green" fill="#051E3C" x="0" y="5.859375" width="4.1015625" height="4.1015625"></rect>
                            <rect id="green" fill="#79B3E2" x="6.4453125" y="5.859375" width="4.1015625" height="4.1015625"></rect>
                            <rect id="green" fill="#79B3E2" opacity="0.5" x="12.890625" y="5.859375" width="4.1015625" height="4.1015625"></rect>
                            <rect id="green" fill="#79B3E2" opacity="0.3" x="19.3359375" y="5.859375" width="4.1015625" height="4.1015625"></rect>
                            <rect id="green" fill="#79B3E2" x="0" y="11.71875" width="4.1015625" height="4.1015625"></rect>
                            <rect id="green" fill="#79B3E2" opacity="0.5" x="6.4453125" y="11.71875" width="4.1015625" height="4.1015625"></rect>
                            <rect id="green" fill="#79B3E2" opacity="0.3" x="12.890625" y="11.71875" width="4.1015625" height="4.1015625"></rect>
                            <rect id="green" fill="#79B3E2" opacity="0.2" x="19.3359375" y="11.71875" width="4.1015625" height="4.1015625"></rect>
                            <rect id="green" fill="#79B3E2" opacity="0.5" x="19.3359375" y="0" width="4.1015625" height="4.1015625"></rect>
                        </g>
                    </g>
                    <g id="rectangles" transform="translate(0.175781, 2.343750)"></g>
                    <g id="rectangles" transform="translate(0.175781, 7.617188)"></g>
                </g>
            </g>
        </g>
    </g>
</svg>