<?xml version="1.0" encoding="UTF-8" standalone="no"?>
<svg width="124px" height="37px" viewBox="0 0 124 37" version="1.1" xmlns="http://www.w3.org/2000/svg" xmlns:xlink="http://www.w3.org/1999/xlink">
    <!-- Generator: Sketch 43.1 (39012) - http://www.bohemiancoding.com/sketch -->
    <title>Google Play</title>
    <desc>Created with Sketch.</desc>
    <defs>
        <linearGradient x1="91.5361538%" y1="4.8388%" x2="-37.5592308%" y2="71.9684%" id="linearGradient-1">
            <stop stop-color="#00A0FF" offset="0%"></stop>
            <stop stop-color="#00A1FF" offset="0.657445%"></stop>
            <stop stop-color="#00BEFF" offset="26.01%"></stop>
            <stop stop-color="#00D2FF" offset="51.22%"></stop>
            <stop stop-color="#00DFFF" offset="76.04%"></stop>
            <stop stop-color="#00E3FF" offset="100%"></stop>
        </linearGradient>
        <linearGradient x1="107.728079%" y1="49.4282353%" x2="-130.665025%" y2="49.4282353%" id="linearGradient-2">
            <stop stop-color="#FFE000" offset="0%"></stop>
            <stop stop-color="#FFBD00" offset="40.87%"></stop>
            <stop stop-color="#FFA500" offset="77.54%"></stop>
            <stop stop-color="#FF9C00" offset="100%"></stop>
        </linearGradient>
        <linearGradient x1="86.3892216%" y1="17.8150459%" x2="-49.888024%" y2="194.392791%" id="linearGradient-3">
            <stop stop-color="#FF3A44" offset="0%"></stop>
            <stop stop-color="#C31162" offset="100%"></stop>
        </linearGradient>
        <linearGradient x1="-18.5790419%" y1="-54.5266535%" x2="42.2748503%" y2="24.6901019%" id="linearGradient-4">
            <stop stop-color="#32A071" offset="0%"></stop>
            <stop stop-color="#2DA771" offset="6.85%"></stop>
            <stop stop-color="#15CF74" offset="47.62%"></stop>
            <stop stop-color="#06E775" offset="80.09%"></stop>
            <stop stop-color="#00F076" offset="100%"></stop>
        </linearGradient>
    </defs>
    <g id="Symbols" stroke="none" stroke-width="1" fill="none" fill-rule="evenodd">
        <g id="Google-Play" fill-rule="nonzero">
            <g id="artwork">
                <g>
                    <g id="Group">
                        <path d="M119.407407,37 L4.59259259,37 C2.02074074,37 0,34.965 0,32.375 L0,4.625 C0,2.035 2.02074074,0 4.59259259,0 L119.407407,0 C121.979259,0 124,2.035 124,4.625 L124,32.375 C124,34.8725 121.979259,37 119.407407,37 Z" id="Shape" fill="#000000"></path>
                        <path d="M119.407407,0.74 C121.52,0.74 123.265185,2.4975 123.265185,4.625 L123.265185,32.375 C123.265185,34.5025 121.52,36.26 119.407407,36.26 L4.59259259,36.26 C2.48,36.26 0.734814815,34.5025 0.734814815,32.375 L0.734814815,4.625 C0.734814815,2.4975 2.48,0.74 4.59259259,0.74 L119.407407,0.74 L119.407407,0.74 Z M119.407407,0 L4.59259259,0 C2.02074074,0 0,2.035 0,4.625 L0,32.375 C0,34.965 2.02074074,37 4.59259259,37 L119.407407,37 C121.979259,37 124,34.965 124,32.375 L124,4.625 C124,2.1275 121.979259,0 119.407407,0 L119.407407,0 Z" id="Shape" fill="#A6A6A6"></path>
                        <g transform="translate(37.659259, 5.550000)" stroke="#FFFFFF" id="Shape" stroke-width="0.2" fill="#FFFFFF">
                            <path d="M5.87851852,3.885 C5.87851852,4.625 5.69481481,5.2725 5.23555556,5.735 C4.68444444,6.29 4.04148148,6.5675 3.21481481,6.5675 C2.38814815,6.5675 1.74518519,6.29 1.19407407,5.735 C0.642962963,5.18 0.367407407,4.5325 0.367407407,3.7 C0.367407407,2.8675 0.642962963,2.22 1.19407407,1.665 C1.74518519,1.11 2.38814815,0.8325 3.21481481,0.8325 C3.58222222,0.8325 3.94962963,0.925 4.31703704,1.11 C4.68444444,1.295 4.96,1.48 5.1437037,1.7575 L4.68444444,2.22 C4.31703704,1.7575 3.85777778,1.5725 3.21481481,1.5725 C2.6637037,1.5725 2.11259259,1.7575 1.74518519,2.22 C1.28592593,2.59 1.10222222,3.145 1.10222222,3.7925 C1.10222222,4.44 1.28592593,4.995 1.74518519,5.365 C2.20444444,5.735 2.6637037,6.0125 3.21481481,6.0125 C3.85777778,6.0125 4.31703704,5.8275 4.7762963,5.365 C5.05185185,5.0875 5.23555556,4.7175 5.23555556,4.255 L3.21481481,4.255 L3.21481481,3.6075 L5.87851852,3.6075 C5.87851852,3.6075 5.87851852,3.7925 5.87851852,3.885 Z"></path>
                            <polygon points="10.1037037 1.5725 7.6237037 1.5725 7.6237037 3.33 9.92 3.33 9.92 3.9775 7.6237037 3.9775 7.6237037 5.735 10.1037037 5.735 10.1037037 6.475 6.88888889 6.475 6.88888889 0.925 10.1037037 0.925"></polygon>
                            <polygon points="13.1348148 6.475 12.4 6.475 12.4 1.5725 10.8385185 1.5725 10.8385185 0.925 14.6962963 0.925 14.6962963 1.5725 13.1348148 1.5725"></polygon>
                            <polygon points="17.36 6.475 17.36 0.925 18.0948148 0.925 18.0948148 6.475"></polygon>
                            <polygon points="21.2177778 6.475 20.482963 6.475 20.482963 1.5725 18.9214815 1.5725 18.9214815 0.925 22.6874074 0.925 22.6874074 1.5725 21.1259259 1.5725 21.1259259 6.475"></polygon>
                            <path d="M29.9437037,5.735 C29.3925926,6.29 28.7496296,6.5675 27.922963,6.5675 C27.0962963,6.5675 26.4533333,6.29 25.9022222,5.735 C25.3511111,5.18 25.0755556,4.5325 25.0755556,3.7 C25.0755556,2.8675 25.3511111,2.22 25.9022222,1.665 C26.4533333,1.11 27.0962963,0.8325 27.922963,0.8325 C28.7496296,0.8325 29.3925926,1.11 29.9437037,1.665 C30.4948148,2.22 30.7703704,2.8675 30.7703704,3.7 C30.7703704,4.5325 30.4948148,5.18 29.9437037,5.735 Z M26.4533333,5.2725 C26.8207407,5.6425 27.3718519,5.92 27.922963,5.92 C28.4740741,5.92 29.0251852,5.735 29.3925926,5.2725 C29.76,4.9025 30.0355556,4.3475 30.0355556,3.7 C30.0355556,3.0525 29.8518519,2.4975 29.3925926,2.1275 C29.0251852,1.7575 28.4740741,1.48 27.922963,1.48 C27.3718519,1.48 26.8207407,1.665 26.4533333,2.1275 C26.0859259,2.4975 25.8103704,3.0525 25.8103704,3.7 C25.8103704,4.3475 25.9940741,4.9025 26.4533333,5.2725 Z"></path>
                            <polygon points="31.7807407 6.475 31.7807407 0.925 32.6074074 0.925 35.2711111 5.2725 35.2711111 5.2725 35.2711111 4.1625 35.2711111 0.925 36.0059259 0.925 36.0059259 6.475 35.2711111 6.475 32.4237037 1.9425 32.4237037 1.9425 32.4237037 3.0525 32.4237037 6.475"></polygon>
                        </g>
                        <path d="M62.5511111,20.165 C60.3466667,20.165 58.6014815,21.83 58.6014815,24.1425 C58.6014815,26.3625 60.3466667,28.12 62.5511111,28.12 C64.7555556,28.12 66.5007407,26.455 66.5007407,24.1425 C66.5007407,21.7375 64.7555556,20.165 62.5511111,20.165 Z M62.5511111,26.455 C61.357037,26.455 60.3466667,25.4375 60.3466667,24.05 C60.3466667,22.6625 61.357037,21.645 62.5511111,21.645 C63.7451852,21.645 64.7555556,22.57 64.7555556,24.05 C64.7555556,25.4375 63.7451852,26.455 62.5511111,26.455 Z M54.0088889,20.165 C51.8044444,20.165 50.0592593,21.83 50.0592593,24.1425 C50.0592593,26.3625 51.8044444,28.12 54.0088889,28.12 C56.2133333,28.12 57.9585185,26.455 57.9585185,24.1425 C57.9585185,21.7375 56.2133333,20.165 54.0088889,20.165 Z M54.0088889,26.455 C52.8148148,26.455 51.8044444,25.4375 51.8044444,24.05 C51.8044444,22.6625 52.8148148,21.645 54.0088889,21.645 C55.202963,21.645 56.2133333,22.57 56.2133333,24.05 C56.2133333,25.4375 55.202963,26.455 54.0088889,26.455 Z M43.8133333,21.3675 L43.8133333,23.0325 L47.762963,23.0325 C47.6711111,23.9575 47.3037037,24.6975 46.8444444,25.16 C46.2933333,25.715 45.3748148,26.3625 43.8133333,26.3625 C41.3333333,26.3625 39.4962963,24.42 39.4962963,21.9225 C39.4962963,19.425 41.4251852,17.4825 43.8133333,17.4825 C45.0992593,17.4825 46.1096296,18.0375 46.8444444,18.685 L48.0385185,17.4825 C47.0281481,16.5575 45.7422222,15.8175 43.9051852,15.8175 C40.5985185,15.8175 37.7511111,18.5925 37.7511111,21.9225 C37.7511111,25.2525 40.5985185,28.0275 43.9051852,28.0275 C45.7422222,28.0275 47.0281481,27.4725 48.1303704,26.27 C49.2325926,25.16 49.6,23.5875 49.6,22.385 C49.6,22.015 49.6,21.645 49.5081481,21.3675 L43.8133333,21.3675 L43.8133333,21.3675 Z M85.5140741,22.6625 C85.1466667,21.7375 84.2281481,20.165 82.2074074,20.165 C80.1866667,20.165 78.5333333,21.7375 78.5333333,24.1425 C78.5333333,26.3625 80.1866667,28.12 82.3911111,28.12 C84.1362963,28.12 85.2385185,27.01 85.6059259,26.3625 L84.32,25.4375 C83.8607407,26.085 83.3096296,26.5475 82.3911111,26.5475 C81.4725926,26.5475 80.9214815,26.1775 80.4622222,25.345 L85.6977778,23.125 L85.5140741,22.6625 Z M80.1866667,23.9575 C80.1866667,22.4775 81.3807407,21.645 82.2074074,21.645 C82.8503704,21.645 83.4933333,22.015 83.677037,22.4775 L80.1866667,23.9575 Z M75.8696296,27.75 L77.6148148,27.75 L77.6148148,16.1875 L75.8696296,16.1875 L75.8696296,27.75 Z M73.1140741,20.9975 L73.1140741,20.9975 C72.6548148,20.535 71.92,20.0725 71.0014815,20.0725 C69.0725926,20.0725 67.2355556,21.83 67.2355556,24.05 C67.2355556,26.27 68.9807407,27.935 71.0014815,27.935 C71.92,27.935 72.6548148,27.4725 73.0222222,27.01 L73.1140741,27.01 L73.1140741,27.565 C73.1140741,29.045 72.2874074,29.8775 71.0014815,29.8775 C69.9911111,29.8775 69.2562963,29.1375 69.0725926,28.49 L67.602963,29.1375 C68.0622222,30.155 69.1644444,31.45 71.0933333,31.45 C73.1140741,31.45 74.7674074,30.2475 74.7674074,27.38 L74.7674074,20.35 L73.1140741,20.35 L73.1140741,20.9975 L73.1140741,20.9975 Z M71.0933333,26.455 C69.8992593,26.455 68.8888889,25.4375 68.8888889,24.05 C68.8888889,22.6625 69.8992593,21.645 71.0933333,21.645 C72.2874074,21.645 73.2059259,22.6625 73.2059259,24.05 C73.2059259,25.4375 72.2874074,26.455 71.0933333,26.455 Z M93.5051852,16.1875 L89.3718519,16.1875 L89.3718519,27.75 L91.117037,27.75 L91.117037,23.4025 L93.5051852,23.4025 C95.4340741,23.4025 97.2711111,22.015 97.2711111,19.795 C97.2711111,17.575 95.4340741,16.1875 93.5051852,16.1875 Z M93.597037,21.7375 L91.117037,21.7375 L91.117037,17.76 L93.597037,17.76 C94.882963,17.76 95.6177778,18.87 95.6177778,19.7025 C95.5259259,20.72 94.7911111,21.7375 93.597037,21.7375 Z M104.16,20.0725 C102.874074,20.0725 101.588148,20.6275 101.128889,21.83 L102.69037,22.4775 C103.057778,21.83 103.608889,21.645 104.251852,21.645 C105.17037,21.645 105.997037,22.2 106.088889,23.125 L106.088889,23.2175 C105.813333,23.0325 105.078519,22.755 104.343704,22.755 C102.69037,22.755 101.037037,23.68 101.037037,25.345 C101.037037,26.9175 102.414815,27.935 103.884444,27.935 C105.078519,27.935 105.62963,27.38 106.088889,26.825 L106.180741,26.825 L106.180741,27.75 L107.834074,27.75 L107.834074,23.31 C107.65037,21.275 106.088889,20.0725 104.16,20.0725 Z M103.976296,26.455 C103.425185,26.455 102.598519,26.1775 102.598519,25.4375 C102.598519,24.5125 103.608889,24.235 104.435556,24.235 C105.17037,24.235 105.537778,24.42 105.997037,24.605 C105.813333,25.715 104.894815,26.455 103.976296,26.455 Z M113.620741,20.35 L111.691852,25.345 L111.6,25.345 L109.579259,20.35 L107.742222,20.35 L110.773333,27.38 L109.028148,31.265 L110.773333,31.265 L115.457778,20.35 L113.620741,20.35 Z M98.1896296,27.75 L99.9348148,27.75 L99.9348148,16.1875 L98.1896296,16.1875 L98.1896296,27.75 Z" id="Shape" fill="#FFFFFF"></path>
                        <g transform="translate(8.266667, 6.475000)" id="Shape">
                            <path d="M1.28592593,0.4625 C1.01037037,0.74 0.826666667,1.2025 0.826666667,1.7575 L0.826666667,22.2 C0.826666667,22.755 1.01037037,23.2175 1.28592593,23.495 L1.37777778,23.5875 L12.7674074,12.1175 L12.7674074,12.025 L12.7674074,11.9325 L1.28592593,0.4625 L1.28592593,0.4625 Z" fill="url(#linearGradient-1)"></path>
                            <path d="M16.5333333,16.0025 L12.7674074,12.21 L12.7674074,12.025 L12.7674074,11.9325 L16.5333333,8.14 L16.6251852,8.2325 L21.1259259,10.8225 C22.4118519,11.5625 22.4118519,12.765 21.1259259,13.505 L16.5333333,16.0025 L16.5333333,16.0025 Z" fill="url(#linearGradient-2)"></path>
                            <path d="M16.6251852,15.91 L12.7674074,12.025 L1.28592593,23.5875 C1.74518519,24.05 2.38814815,24.05 3.21481481,23.68 L16.6251852,15.91" fill="url(#linearGradient-3)"></path>
                            <path d="M16.6251852,8.14 L3.21481481,0.4625 C2.38814815,-1.98729921e-14 1.74518519,0.0925 1.28592593,0.555 L12.7674074,12.025 L16.6251852,8.14 Z" fill="url(#linearGradient-4)"></path>
                            <g transform="translate(0.918519, 15.725000)" fill="#000000">
                                <path d="M15.6148148,0.0925 L2.2962963,7.6775 C1.56148148,8.14 0.918518519,8.0475 0.459259259,7.6775 L0.459259259,7.6775 L0.367407407,7.77 L0.367407407,7.77 L0.459259259,7.8625 L0.459259259,7.8625 C0.918518519,8.2325 1.56148148,8.325 2.2962963,7.8625 L15.6148148,0.0925 L15.6148148,0.0925 Z" opacity="0.2"></path>
                                <path d="M0.367407407,7.6775 C0.0918518519,7.4 0,6.9375 0,6.3825 L0,6.475 C0,7.03 0.183703704,7.4925 0.459259259,7.77 L0.459259259,7.6775 L0.367407407,7.6775 Z" opacity="0.12"></path>
                            </g>
                            <path d="M21.1259259,13.2275 L16.5333333,15.8175 L16.6251852,15.91 L21.1259259,13.32 C21.7688889,12.95 22.0444444,12.4875 22.0444444,12.025 L22.0444444,12.025 C22.0444444,12.4875 21.677037,12.8575 21.1259259,13.2275 Z" fill="#000000" opacity="0.12"></path>
                            <path d="M3.21481481,0.555 L21.1259259,10.8225 C21.677037,11.1925 22.0444444,11.5625 22.0444444,12.025 L22.0444444,12.025 C22.0444444,11.5625 21.7688889,11.1 21.1259259,10.73 L3.21481481,0.4625 C1.92888889,-0.2775 0.918518519,0.37 0.918518519,1.85 L0.918518519,1.9425 C0.918518519,0.4625 1.92888889,-0.185 3.21481481,0.555 Z" fill="#FFFFFF" opacity="0.25"></path>
                        </g>
                    </g>
                </g>
            </g>
        </g>
    </g>
</svg>