<svg xmlns="http://www.w3.org/2000/svg" width="80" height="80" viewBox="0 0 70 70">
	<path fill="#00B8B9" d="M22.6 31.4H19V35h3.6v-3.6M29.7 31.4h-3.6V35h3.6v-3.6M29.7 42.1h-3.6v3.6h3.6v-3.6M36.8 31.4h-3.6V35h3.6v-3.6M29.7 20.8h-3.6v3.5h3.6v-3.5"/>
	<path fill="none" stroke="#00B8B9" stroke-width="3" stroke-miterlimit="10" d="M51 10.1V3H33.2v10.7H19v10.7l-14.2-.2V67h60.4V10.1H51z"/>
	<path fill="#00B8B9" d="M36.8 20.8h-3.6v3.5h3.6v-3.5M15.4 42.1h-3.5v3.6h3.5v-3.6M22.6 42.1H19v3.6h3.6v-3.6M15.4 31.4h-3.5V35h3.5v-3.6M51 31.4h-3.6V35H51v-3.6M58.1 31.4h-3.5V35h3.5v-3.6M51 42.1h-3.6v3.6H51v-3.6M51 20.8h-3.6v3.5H51v-3.5M36.8 42.1h-3.6v3.6h3.6v-3.6M58.1 42.1h-3.5v3.6h3.5v-3.6M58.1 20.8h-3.5v3.5h3.5v-3.5M43.9 20.8h-3.6v3.5h3.6v-3.5M43.9 10.1h-3.6v3.6h3.6v-3.6M43.9 42.1h-3.6v3.6h3.6v-3.6M43.9 31.4h-3.6V35h3.6v-3.6"/>
</svg>