<?xml version="1.0" encoding="UTF-8" standalone="no"?>
<svg
   xmlns:dc="http://purl.org/dc/elements/1.1/"
   xmlns:cc="http://creativecommons.org/ns#"
   xmlns:rdf="http://www.w3.org/1999/02/22-rdf-syntax-ns#"
   xmlns:svg="http://www.w3.org/2000/svg"
   xmlns="http://www.w3.org/2000/svg"
   xmlns:sodipodi="http://sodipodi.sourceforge.net/DTD/sodipodi-0.dtd"
   version="1.1"
   x="0px"
   y="0px"
   viewBox="0 0 20 26.665777"
   enable-background="new 0 0 100 100"
   xml:space="preserve"
   id="svg2"
   sodipodi:docname="share.svg"
   width="20"
   height="26.665777"><metadata
     id="metadata10"><rdf:RDF><cc:Work
         rdf:about=""><dc:format>image/svg+xml</dc:format><dc:type
           rdf:resource="http://purl.org/dc/dcmitype/StillImage" /><dc:title></dc:title></cc:Work></rdf:RDF></metadata><defs
     id="defs8" /><sodipodi:namedview
     pagecolor="#ffffff"
     bordercolor="#666666"
     borderopacity="1"
     objecttolerance="10"
     gridtolerance="10"
     guidetolerance="10"
     id="namedview6"
     showgrid="false"
     fit-margin-top="0"
     fit-margin-left="0"
     fit-margin-right="0"
     fit-margin-bottom="0" /><path
     d="m 15.833473,18.332722 c -0.872305,0 -1.686278,0.270325 -2.356589,0.730642 l -5.413153,-4.25619 c 0.172661,-0.458986 0.270324,-0.951969 0.270324,-1.474618 0,-0.533982 -0.104329,-1.044965 -0.286324,-1.513617 l 5.331823,-4.2821899 c 0.686311,0.499983 1.535949,0.796307 2.453919,0.796307 C 18.134729,8.3330561 20,6.4677841 20,4.1665281 20,1.8652711 18.134729,0 15.833473,0 c -2.304591,0 -4.166528,1.8652711 -4.166528,4.1665281 0,0.475318 0.078,0.930969 0.224658,1.355622 L 6.478451,9.8693381 C 5.820806,9.4266861 5.023499,9.1663621 4.167194,9.1663621 1.8636046,9.1663621 0,11.031632 0,13.332889 c 0,2.301257 1.8636046,4.166527 4.167194,4.166527 0.868971,0 1.682944,-0.26699 2.353589,-0.725975 l 5.413152,4.254525 c -0.17266,0.458985 -0.26699,0.955301 -0.26699,1.471284 0,2.301257 1.861937,4.166528 4.166528,4.166528 C 18.134729,26.665778 20,24.800507 20,22.49925 20,20.197994 18.134729,18.332722 15.833473,18.332722 Z"
     id="path4"
     style="fill:#e3e4e5;fill-opacity:1" /></svg>