<?xml version="1.0" encoding="utf-8"?>
<!-- Generator: Adobe Illustrator 16.0.4, SVG Export Plug-In . SVG Version: 6.00 Build 0)  -->
<!DOCTYPE svg PUBLIC "-//W3C//DTD SVG 1.1//EN" "http://www.w3.org/Graphics/SVG/1.1/DTD/svg11.dtd">
<svg version="1.1" id="Layer_1" xmlns="http://www.w3.org/2000/svg" xmlns:xlink="http://www.w3.org/1999/xlink" x="0px" y="0px"
	 width="70px" height="70px" viewBox="0 0 70 70" enable-background="new 0 0 70 70" xml:space="preserve">
<rect x="4.7" y="8.6" fill="none" stroke="#00B8B9" stroke-width="3" stroke-miterlimit="10" width="60.5" height="38.8"/>
<g>
	<line fill="none" stroke="#00B8B9" stroke-width="3" stroke-miterlimit="10" x1="29.5" y1="47.4" x2="29.5" y2="61.4"/>
	<line fill="none" stroke="#00B8B9" stroke-width="3" stroke-miterlimit="10" x1="40.5" y1="47.4" x2="40.5" y2="61.4"/>
</g>
<line fill="none" stroke="#00B8B9" stroke-width="3" stroke-miterlimit="10" x1="6.6" y1="61.4" x2="63.4" y2="61.4"/>
<path fill="none" stroke="#00B8B9" stroke-width="3" stroke-linecap="round" stroke-miterlimit="10" d="M24.4,24
	c2.3,0,4.1,1.8,4.1,4.1c0,2.3-1.8,4.1-4.1,4.1"/>
<path fill="none" stroke="#00B8B9" stroke-width="3" stroke-linecap="round" stroke-miterlimit="10" d="M28.5,19.9
	c4.6,0,8.2,3.7,8.2,8.2c0,4.6-3.7,8.2-8.2,8.2"/>
<path fill="none" stroke="#00B8B9" stroke-width="3" stroke-linecap="round" stroke-miterlimit="10" d="M32.9,15.5
	c7,0,12.7,5.7,12.7,12.7c0,7-5.7,12.7-12.7,12.7"/>
</svg>
